<svg width="137" height="134" viewBox="0 0 137 134" fill="none" xmlns="http://www.w3.org/2000/svg">
<path d="M31.5538 30.9444L47.9173 74.3103L54.4915 86.516L68.0002 72.4999C31.5536 30.9445 31.5538 30.9444 31.5538 30.9444Z" fill="#B4B4B4"/>
<path d="M31.5538 30.9444L47.9173 74.3103L54.4915 86.516L68.0002 72.4999C31.5536 30.9445 31.5538 30.9444 31.5538 30.9444Z" fill="#B4B4B4"/>
<path d="M95.7431 97.1186L73.7637 85.9484L82.3486 86.8078L96.8977 96.7856L95.7431 97.1186Z" fill="#D8D8D8"/>
<path d="M95.7431 97.1186L73.7637 85.9484L82.3486 86.8078L96.8977 96.7856L95.7431 97.1186Z" fill="#D8D8D8"/>
<path d="M12 52.1713L29.5081 61.4361L34.4318 62.8077L32.5676 55.903L12 52.1713Z" fill="#B4B4B4"/>
<path d="M12 52.1713L29.5081 61.4361L34.4318 62.8077L32.5676 55.903L12 52.1713Z" fill="#B4B4B4"/>
<path d="M25.7031 56.6982L54.9453 86.9867L56.6194 74.9452L30.5 57L25.7031 56.6982Z" fill="#D8D8D8"/>
<path d="M25.7031 56.6982L54.9453 86.9867L56.6194 74.9452L30.5 57L25.7031 56.6982Z" fill="#D8D8D8"/>
<path d="M12 52.1713L31.065 58.6346L36.4083 61.0558L32.7041 55.9556L12 52.1713Z" fill="white"/>
<path d="M12 52.1713L31.065 58.6346L36.4083 61.0558L32.7041 55.9556L12 52.1713Z" fill="white"/>
<path d="M82.3484 86.8078L54.7411 87.0969L64.8907 79.753L82.3484 86.8078Z" fill="#B4B4B4"/>
<path d="M82.3484 86.8078L54.7411 87.0969L64.8907 79.753L82.3484 86.8078Z" fill="#B4B4B4"/>
<path d="M78.0002 79.4257L99.5002 84.4998L98.0002 77.9998L78.0002 79.4257Z" fill="white"/>
<path d="M78.0002 79.4257L99.5002 84.4998L98.0002 77.9998L78.0002 79.4257Z" fill="white"/>
<path d="M108.756 100.322L97.7263 98.2141L94.7513 96.5708L105.722 97.0288L108.756 100.322Z" fill="white"/>
<path d="M108.756 100.322L97.7263 98.2141L94.7513 96.5708L105.722 97.0288L108.756 100.322Z" fill="white"/>
<path d="M90.4236 79.9031L54.7409 87.0969L48.6745 72.9704L56.1533 70.7735L90.4236 79.9031Z" fill="#D8D8D8"/>
<path d="M90.4236 79.9031L54.7409 87.0969L48.6745 72.9704L56.1533 70.7735L90.4236 79.9031Z" fill="#D8D8D8"/>
<path d="M106.637 32.6492L48.1498 73.9311L54.53 86.9073L68.6204 84.2634L106.637 32.6492Z" fill="white"/>
<path d="M106.637 32.6492L48.1498 73.9311L54.53 86.9073L68.6204 84.2634L106.637 32.6492Z" fill="white"/>
</svg>
