<svg width="133" height="127" viewBox="0 0 133 127" fill="none" xmlns="http://www.w3.org/2000/svg">
<path d="M20.4999 32.5001L37.9999 56.0001L44.1528 70.9219L50.7271 83.1276L64.2357 69.1115L52.4999 56.0001L20.4999 32.5001Z" fill="#B4B4B4"/>
<path d="M20.4999 32.5001L37.9999 56.0001L44.1528 70.9219L50.7271 83.1276L64.2357 69.1115L52.4999 56.0001L20.4999 32.5001Z" fill="#B4B4B4"/>
<path d="M20.5 32.5001L38 56L52.4999 56.0001L20.5 32.5001Z" fill="#D8D8D8"/>
<path d="M20.5 32.5001L38 56L52.4999 56.0001L20.5 32.5001Z" fill="#D8D8D8"/>
<path d="M91.9787 93.7301L69.9993 82.56L78.5842 83.4193L93.1333 93.3972L91.9787 93.7301Z" fill="#D8D8D8"/>
<path d="M91.9787 93.7301L69.9993 82.56L78.5842 83.4193L93.1333 93.3972L91.9787 93.7301Z" fill="#D8D8D8"/>
<path d="M8.2356 48.7828L25.7437 58.0477L30.6674 59.4193L28.8032 52.5145L8.2356 48.7828Z" fill="#B4B4B4"/>
<path d="M8.2356 48.7828L25.7437 58.0477L30.6674 59.4193L28.8032 52.5145L8.2356 48.7828Z" fill="#B4B4B4"/>
<path d="M21.9387 53.3097L51.1809 83.5983L52.855 71.5568L26.7356 53.6116L21.9387 53.3097Z" fill="#D8D8D8"/>
<path d="M21.9387 53.3097L51.1809 83.5983L52.855 71.5568L26.7356 53.6116L21.9387 53.3097Z" fill="#D8D8D8"/>
<path d="M8.2356 48.7828L27.3006 55.2462L32.6439 57.6674L28.9397 52.5672L8.2356 48.7828Z" fill="white"/>
<path d="M8.2356 48.7828L27.3006 55.2462L32.6439 57.6674L28.9397 52.5672L8.2356 48.7828Z" fill="white"/>
<path d="M78.5843 83.4194L50.9769 83.7085L61.1265 76.3646L78.5843 83.4194Z" fill="#B4B4B4"/>
<path d="M78.5843 83.4194L50.9769 83.7085L61.1265 76.3646L78.5843 83.4194Z" fill="#B4B4B4"/>
<path d="M74.2361 76.0372L95.7361 81.1113L94.2361 74.6113L74.2361 76.0372Z" fill="white"/>
<path d="M74.2361 76.0372L95.7361 81.1113L94.2361 74.6113L74.2361 76.0372Z" fill="white"/>
<path d="M104.991 96.9341L93.9619 94.8258L90.9869 93.1825L101.957 93.6404L104.991 96.9341Z" fill="white"/>
<path d="M104.991 96.9341L93.9619 94.8258L90.9869 93.1825L101.957 93.6404L104.991 96.9341Z" fill="white"/>
<path d="M86.6592 76.5146L50.9765 83.7085L44.9101 69.582L52.3889 67.3851L86.6592 76.5146Z" fill="#D8D8D8"/>
<path d="M86.6592 76.5146L50.9765 83.7085L44.9101 69.582L52.3889 67.3851L86.6592 76.5146Z" fill="#D8D8D8"/>
<path d="M110 37L64 56L44.3856 70.5426L50.7659 83.5188L64.8562 80.875L82.5 56L110 37Z" fill="white"/>
<path d="M110 37L64 56L44.3856 70.5426L50.7659 83.5188L64.8562 80.875L82.5 56L110 37Z" fill="white"/>
<path d="M110 37L64 56L82.5 56L110 37Z" fill="#D8D8D8"/>
<path d="M110 37L64 56L82.5 56L110 37Z" fill="#D8D8D8"/>
</svg>